<svg width="102" height="89" viewBox="0 0 102 89" fill="none" xmlns="http://www.w3.org/2000/svg">
<path id="Vector" d="M102 22.25V79.4643C102 84.7288 97.7168 89 92.4375 89H9.5625C4.2832 89 0 84.7288 0 79.4643V22.25C0 16.9855 4.2832 12.7143 9.5625 12.7143H27.0938L29.5441 6.17835C30.9387 2.46339 34.5047 0 38.4891 0H63.491C67.4754 0 71.0414 2.46339 72.4359 6.17835L74.9062 12.7143H92.4375C97.7168 12.7143 102 16.9855 102 22.25ZM74.9062 50.8571C74.9062 37.7058 64.1883 27.0179 51 27.0179C37.8117 27.0179 27.0938 37.7058 27.0938 50.8571C27.0938 64.0085 37.8117 74.6964 51 74.6964C64.1883 74.6964 74.9062 64.0085 74.9062 50.8571ZM68.5312 50.8571C68.5312 60.4922 60.6621 68.3393 51 68.3393C41.3379 68.3393 33.4688 60.4922 33.4688 50.8571C33.4688 41.2221 41.3379 33.375 51 33.375C60.6621 33.375 68.5312 41.2221 68.5312 50.8571Z" fill="#FCFECD"/>
</svg>
