<svg width="30" height="30" viewBox="0 0 30 30" fill="none" xmlns="http://www.w3.org/2000/svg">
<g id="Siedzenie - inwalidzi">
<path id="Subtract" fill-rule="evenodd" clip-rule="evenodd" d="M5 0C2.23858 0 0 2.23858 0 5V25C0 27.7614 2.23858 30 5 30H25C27.7614 30 30 27.7614 30 25V5C30 2.23858 27.7614 0 25 0H5ZM24.3824 22.3646L24.9951 14.991C25.0664 14.1331 24.3491 13.4066 23.4704 13.4581L18.4307 13.7347L21.2046 10.6174C21.8981 9.83927 21.6844 8.62517 20.9149 8.15172C20.9054 8.14234 14.2887 4.35004 14.2887 4.35004C13.7472 4.04066 13.0679 4.10628 12.6025 4.5188L9.37248 7.36419C7.94274 8.62517 9.87122 10.7487 11.2962 9.49238L13.7472 7.33607L15.7707 8.4986L12.194 12.5159C10.7072 12.755 9.37248 13.43 8.32748 14.4003L10.1942 16.2426C11.035 15.4879 12.156 15.0238 13.3862 15.0238C17.5234 15.0238 19.6514 19.8755 16.9012 22.8615L18.7679 24.7038C20.0124 23.4006 20.7771 21.6427 20.7771 19.7114C20.7771 18.5583 20.5064 17.4707 20.0266 16.5004L21.9789 16.3926L21.5039 22.1349C21.3471 24.01 24.2256 24.2725 24.3824 22.3646ZM24.3301 5.38601C24.3301 6.70323 23.2471 7.77202 21.9124 7.77202C20.5776 7.77202 19.4947 6.70323 19.4947 5.38601C19.4947 4.06878 20.5776 3 21.9124 3C23.2471 3 24.3301 4.06878 24.3301 5.38601ZM9.46272 17.0817C7.33949 20.1521 9.56248 24.3991 13.3909 24.3991C14.3789 24.3991 15.2957 24.0991 16.0557 23.5881L17.9414 25.4491C13.1582 29.1476 6 25.8335 6 19.7067C6 18.0145 6.589 16.4535 7.57699 15.2207L9.46272 17.0817Z" fill="#003CFF"/>
</g>
</svg>
